<svg width="322" height="104" viewBox="0 0 322 104" fill="none" xmlns="http://www.w3.org/2000/svg">
<path d="M27.6373 1.11523C96.8119 32.8287 141.581 42.0044 243.471 26.7905C269.26 1.88483 282.227 -9.94543 269.535 20.1005C318.993 14.8384 331.641 14.8781 278.105 30.0451C332.849 30.5572 336.186 33.0129 282.389 42.1595C321.375 47.2867 330.585 49.8508 282.389 52.8274C328.109 64.4185 271.974 62.1009 251.326 58.4325C230.679 54.7641 134.101 69.8326 81.3726 65.8458C48.3963 38.2175 41.3853 32.9018 52.0949 58.4325C-1.65153 53.0611 4.4014 56.6426 41.562 67.8347C-0.963253 68.4956 -21.3447 69.2157 37.6346 80.1299C-10.9928 85.2066 -2.55865 88.0594 41.562 93.1484C-8.11151 103.897 33.7446 99.9 84.4074 96.2222C170.283 103.809 216.385 104.719 294.529 99.8384" stroke="black"/>
</svg>
